<?xml version="1.0" encoding="UTF-8" standalone="no"?>
<svg
   xmlns:dc="http://purl.org/dc/elements/1.1/"
   xmlns:cc="http://creativecommons.org/ns#"
   xmlns:rdf="http://www.w3.org/1999/02/22-rdf-syntax-ns#"
   xmlns:svg="http://www.w3.org/2000/svg"
   xmlns="http://www.w3.org/2000/svg"
   xmlns:sodipodi="http://sodipodi.sourceforge.net/DTD/sodipodi-0.dtd"
   xmlns:inkscape="http://www.inkscape.org/namespaces/inkscape"
   width="700"
   height="700"
   viewBox="0 0 700 700"
   version="1.1"
   id="svg85"
   sodipodi:docname="fifa23-logo.svg"
   style="fill:none"
   inkscape:version="0.92.0 r15299"
   inkscape:export-filename="C:\Users\suitedoalex\sites\fifa23-logo-0.png"
   inkscape:export-xdpi="561.73712"
   inkscape:export-ydpi="561.73712">
  <metadata
     id="metadata89">
    <rdf:RDF>
      <cc:Work
         rdf:about="">
        <dc:format>image/svg+xml</dc:format>
        <dc:type
           rdf:resource="http://purl.org/dc/dcmitype/StillImage" />
        <dc:title></dc:title>
      </cc:Work>
    </rdf:RDF>
  </metadata>
  <sodipodi:namedview
     pagecolor="#ffffff"
     bordercolor="#666666"
     borderopacity="1"
     objecttolerance="10"
     gridtolerance="10"
     guidetolerance="10"
     inkscape:pageopacity="0"
     inkscape:pageshadow="2"
     inkscape:window-width="1920"
     inkscape:window-height="1017"
     id="namedview87"
     showgrid="false"
     inkscape:zoom="0.25520579"
     inkscape:cx="1139.6027"
     inkscape:cy="-435.15668"
     inkscape:window-x="-8"
     inkscape:window-y="-8"
     inkscape:window-maximized="1"
     inkscape:current-layer="svg85" />
  <g
     clip-path="url(#clip0_457_54223)"
     id="g78"
     transform="translate(0,667)" />
  <defs
     id="defs83">
    <clipPath
       id="clip0_457_54223">
      <rect
         width="139.334"
         height="30.6569"
         transform="translate(1,1)"
         id="rect80"
         x="0"
         y="0"
         style="fill:#ffffff" />
    </clipPath>
  </defs>
  <path
     d="m 98.977102,929.27468 c 48.907088,0 88.554468,-39.70233 88.554468,-88.67711 0,-48.97542 -39.64738,-88.67769 -88.554468,-88.67769 -48.907669,0 -88.555052,39.70227 -88.555052,88.67769 0,48.97478 39.647383,88.67711 88.555052,88.67711 z"
     id="path62"
     inkscape:connector-curvature="0"
     style="fill:#000000;stroke-width:5.78515148"
     inkscape:export-filename="C:\Users\suitedoalex\sites\fifa23-logo-4.png"
     inkscape:export-xdpi="96.17202"
     inkscape:export-ydpi="96.17202" />
  <path
     d="m 157.22663,854.88458 h 2.23827 v 0.49231 h -0.8857 v 1.92125 h -0.5658 v -1.92125 h -0.88512 z m -105.626386,8.89235 h -5.116506 c -1.131581,0 -1.6973,-0.61612 -1.6973,-1.87208 v -2.02017 c -0.02623,-0.51776 0.140336,-1.02686 0.467379,-1.42893 0.146309,-0.18396 0.33386,-0.33149 0.5475,-0.42983 0.213652,-0.0983 0.447433,-0.14521 0.682421,-0.13653 h 4.009572 c 0.426604,-0.0226 0.847637,0.10531 1.189432,0.36214 0.341781,0.25687 0.582496,0.62537 0.680044,1.04191 l 0.565784,1.94612 h 3.665181 v -2.16769 c 0.02065,-0.66414 -0.09778,-1.32481 -0.347808,-1.93977 -0.249973,-0.61553 -0.625894,-1.17091 -1.103505,-1.63198 -0.467561,-0.45818 -1.021671,-0.81803 -1.629917,-1.05926 -0.608195,-0.24125 -1.258321,-0.35811 -1.912277,-0.3448 h -5.928277 c -0.671539,-0.0139 -1.338857,0.10999 -1.9607,0.36447 -0.621908,0.25396 -1.185263,0.63289 -1.655317,1.11364 -0.473742,0.46454 -0.848728,1.02108 -1.10235,1.63489 -0.253622,0.6138 -0.380661,1.27272 -0.373558,1.93685 v 3.44853 c -0.02402,0.67571 0.09116,1.34968 0.338549,1.9791 0.247376,0.63001 0.621557,1.20159 1.099298,1.68002 0.477741,0.47843 1.04868,0.85273 1.677354,1.10091 0.62866,0.24761 1.301601,0.36273 1.976724,0.33901 h 5.091912 c 1.131515,0 1.697312,0.66471 1.697312,1.94555 v 2.61141 c 0.02052,0.50505 -0.136128,1.002 -0.442797,1.40406 -0.150127,0.18628 -0.341898,0.33438 -0.559836,0.43273 -0.217925,0.0983 -0.455861,0.14405 -0.694679,0.13364 H 46.70513 c -0.429305,0.0405 -0.858571,-0.0775 -1.207235,-0.33149 -0.348729,-0.25397 -0.592924,-0.62653 -0.686875,-1.04769 l -0.54115,-2.19257 h -3.689828 v 2.46331 c -0.01688,0.66472 0.100769,1.32654 0.346015,1.94439 0.245182,0.61785 0.612818,1.18017 1.080729,1.65224 0.471314,0.46859 1.032527,0.83653 1.649746,1.08183 0.61722,0.24587 1.277708,0.3633 1.941677,0.34652 h 6.002035 c 0.669162,0.008 1.332832,-0.12207 1.950402,-0.38066 0.617506,-0.25801 1.175888,-0.63984 1.640955,-1.12174 0.472366,-0.46975 0.844521,-1.03091 1.094039,-1.64934 0.249454,-0.61786 0.371,-1.28026 0.357287,-1.94729 v -4.163 c -0.0065,-1.34157 -0.538072,-2.62761 -1.480998,-3.581 -0.942925,-0.9534 -2.221789,-1.49835 -3.561685,-1.51745 z m 24.450886,-8.20276 c 0.470911,0.46165 0.844053,1.01413 1.097442,1.62332 0.25396,0.60917 0.382401,1.26347 0.378349,1.92356 v 4.92663 c 0.01039,0.66819 -0.114533,1.33174 -0.368519,1.95017 -0.253973,0.61844 -0.630582,1.17844 -1.107272,1.64587 -0.479013,0.47555 -1.047122,0.851 -1.671912,1.10498 -0.625375,0.25396 -1.294135,0.38066 -1.968686,0.37314 h -6.592181 v 8.91723 h -4.206499 v -23.94301 h 10.79868 c 0.674551,-0.008 1.343311,0.11973 1.968686,0.37315 0.62479,0.25396 1.192899,0.62942 1.671912,1.10496 z m -2.754888,4.33539 c 0.01558,-0.51314 -0.159671,-1.01355 -0.492324,-1.40406 -0.144621,-0.17817 -0.329172,-0.31991 -0.538592,-0.41364 -0.208848,-0.0943 -0.437356,-0.13826 -0.666448,-0.12843 h -5.780527 v 7.38995 h 5.780527 c 0.229092,0.009 0.4576,-0.0347 0.666448,-0.12842 0.20942,-0.0943 0.393971,-0.23603 0.538592,-0.41364 0.332069,-0.40091 0.506777,-0.90826 0.492324,-1.42893 z m 42.088128,8.22706 4.18151,9.85327 h -4.47655 l -3.81299,-9.33608 h -4.10805 v 9.38526 h -4.23068 v -23.94301 h 10.57699 c 0.66762,-0.0104 1.33002,0.11519 1.94787,0.36909 0.61728,0.25398 1.1767,0.63116 1.64356,1.10902 0.48422,0.45587 0.87124,1.00488 1.13736,1.61463 0.26669,0.60975 0.40669,1.26695 0.41248,1.93225 v 4.18786 c 0.009,1.05175 -0.29967,2.08208 -0.88571,2.95564 -0.61091,0.82901 -1.43587,1.47579 -2.38579,1.87207 z m -1.03323,-8.22706 c 0.0318,-0.50678 -0.12609,-1.00777 -0.44257,-1.40406 -0.1452,-0.17817 -0.32975,-0.31991 -0.53917,-0.41364 -0.20884,-0.0943 -0.43736,-0.13826 -0.66645,-0.12843 h -5.53466 v 6.84789 h 5.53466 c 0.22852,0.004 0.45472,-0.0422 0.66355,-0.13596 0.20828,-0.0937 0.3934,-0.23256 0.54207,-0.40611 0.31645,-0.39686 0.4744,-0.89728 0.44257,-1.40406 z m 6.9121,-1.94613 h 6.07615 v 20.07564 h 4.25556 v -20.07564 h 6.12474 v -3.86737 h -16.45645 z m 30.52709,5.8135 h -5.0921 c -1.13158,0 -1.69736,-0.61612 -1.69736,-1.87208 v -2.02017 c -0.026,-0.51776 0.14058,-1.02686 0.46744,-1.42893 0.14868,-0.18108 0.33669,-0.32629 0.55017,-0.42463 0.2129,-0.0983 0.44545,-0.14637 0.67975,-0.14173 h 3.93564 c 0.42811,-0.0278 0.85158,0.0983 1.19405,0.35578 0.34307,0.25744 0.58258,0.62942 0.67571,1.04827 l 0.5658,1.94612 h 3.66488 v -2.16769 c 0.0104,-0.6624 -0.11285,-1.32017 -0.36215,-1.93397 -0.24933,-0.61381 -0.61959,-1.17092 -1.08876,-1.63778 -0.47091,-0.46108 -1.02861,-0.82324 -1.64126,-1.0639 -0.61263,-0.24123 -1.26751,-0.35693 -1.92587,-0.34016 h -5.90375 c -1.32884,0.0191 -2.59811,0.55827 -3.53529,1.50183 -0.93779,0.94355 -1.47002,2.21687 -1.48274,3.54802 v 3.44853 c -0.0104,0.67398 0.11687,1.34331 0.37545,1.96638 0.25803,0.62248 0.641,1.18596 1.12522,1.65455 0.46743,0.47729 1.02628,0.85447 1.64413,1.10902 0.61728,0.25396 1.27967,0.37951 1.94729,0.36909 h 5.09208 c 1.15588,0 1.69737,0.66471 1.69737,1.94555 v 2.61141 c 0.0203,0.50505 -0.13654,1.002 -0.44314,1.40406 -0.14984,0.18628 -0.34191,0.33438 -0.56,0.43273 -0.21753,0.0983 -0.45588,0.14405 -0.69423,0.13364 h -4.05885 c -0.42927,0.0405 -0.85852,-0.0775 -1.20737,-0.33149 -0.34884,-0.25397 -0.59297,-0.62653 -0.68669,-1.04769 l -0.5415,-2.19257 h -3.68976 v 2.46331 c -0.0132,0.66646 0.10817,1.32885 0.35752,1.94728 0.24933,0.61844 0.62132,1.17902 1.09397,1.64935 0.93836,0.87993 2.18331,1.3572 3.4682,1.33001 h 5.97779 c 0.6734,0.0104 1.34158,-0.11739 1.96348,-0.37545 0.62191,-0.2586 1.18423,-0.64216 1.65224,-1.12696 0.47671,-0.46802 0.8539,-1.02802 1.10729,-1.64645 0.25396,-0.61843 0.3795,-1.28199 0.3685,-1.95018 v -4.06465 c -0.0313,-1.34215 -0.57735,-2.62125 -1.52553,-3.57059 -0.94819,-0.94934 -2.22556,-1.49662 -3.56598,-1.52786 z m 10.42946,-8.89235 -0.91,1.37917 -0.83653,-1.37917 h -0.36852 v 2.31522 h 0.36852 v -1.42894 c 0,0 0,-0.1724 0,-0.27074 0,-0.0983 0,0.1724 0.1481,0.24644 l 0.76248,1.15761 0.73761,-1.13331 c 0,0 0,-0.1724 0,-0.27074 v 1.69968 h 0.41826 v -2.31522 z m -65.924104,0.66471 c 0.47843,0.46282 0.857935,1.01819 1.115959,1.63199 0.258012,0.6138 0.388751,1.27389 0.384712,1.93977 v 13.76982 c 0.0039,0.67453 -0.126739,1.34388 -0.3824,1.9681 -0.2557,0.6248 -0.632323,1.19232 -1.107285,1.67075 -0.475534,0.47843 -1.040746,0.85794 -1.663225,1.11712 -0.622479,0.25859 -1.289512,0.39223 -1.963479,0.39223 h -5.707054 c -0.673396,0.0104 -1.341584,-0.11739 -1.963479,-0.37545 -0.621908,-0.2586 -1.184796,-0.64216 -1.652239,-1.12696 -0.505622,-0.46281 -0.908267,-1.02628 -1.18364,-1.65397 -0.275374,-0.62768 -0.417112,-1.30629 -0.415385,-1.99182 v -13.76982 c 0.04454,-1.32654 0.603975,-2.58308 1.559678,-3.50291 0.955132,-0.91984 2.231334,-1.43067 3.556712,-1.42374 h 5.707054 c 0.678603,-0.0434 1.359517,0.0544 1.998774,0.28753 0.639256,0.23315 1.223558,0.59644 1.715297,1.06736 z m -2.73002,4.36027 c 0.02545,-0.51488 -0.151569,-1.01876 -0.492311,-1.40406 -0.145206,-0.17817 -0.329173,-0.31991 -0.538592,-0.41364 -0.209433,-0.0943 -0.437369,-0.13826 -0.666449,-0.12843 h -4.058866 c -0.236611,-0.0104 -0.472066,0.0335 -0.689017,0.12726 -0.217522,0.0943 -0.410749,0.23547 -0.565784,0.4148 -0.306617,0.40149 -0.463392,0.89844 -0.442563,1.40406 v 12.31601 c -0.01675,0.49752 0.139426,0.98521 0.442563,1.37976 0.149257,0.18918 0.340171,0.34132 0.557694,0.44372 0.217522,0.10233 0.456445,0.15272 0.697107,0.14752 h 4.058866 c 0.233131,0.006 0.465119,-0.0452 0.674539,-0.1481 0.210003,-0.10298 0.392231,-0.25513 0.530502,-0.44314 0.337275,-0.37835 0.513724,-0.87298 0.492311,-1.37976 z M 111.39956,792.95783 H 65.891824 l -6.961219,11.08452 h 45.482805 z m 17.21893,33.22951 h -6.78946 l -7.01045,11.10922 h 20.83522 l 6.98557,11.08493 h 13.28328 l -35.20032,-55.81775 -28.313112,44.7577 H 61.46427 l 7.108969,-11.10981 h 19.211329 l 7.011031,-11.08435 h -42.87561 l -7.059793,11.08435 h 10.282242 l -14.021194,22.16986 h 57.855858 l 21.745228,-34.87984 z"
     id="path64"
     inkscape:connector-curvature="0"
     style="fill:#ffffff;stroke-width:5.78515148"
     inkscape:export-filename="C:\Users\suitedoalex\sites\fifa23-logo-4.png"
     inkscape:export-xdpi="96.17202"
     inkscape:export-ydpi="96.17202" />
  <path
     d="m 221.30586,785.51877 h 82.01145 l -4.1572,24.09063 h -51.65677 l -3.54226,20.22373 h 41.6207 l -4.15721,24.06566 h -41.81738 l -7.37954,41.67854 h -30.35469 z"
     id="path66"
     inkscape:connector-curvature="0"
     style="fill:#000000;stroke-width:5.78515148"
     inkscape:export-filename="C:\Users\suitedoalex\sites\fifa23-logo-4.png"
     inkscape:export-xdpi="96.17202"
     inkscape:export-ydpi="96.17202" />
  <path
     d="m 313.94406,785.51882 h 30.37899 l -19.43291,110.05851 h -30.37898 z"
     id="path68"
     inkscape:connector-curvature="0"
     style="fill:#000000;stroke-width:5.78515148"
     inkscape:export-filename="C:\Users\suitedoalex\sites\fifa23-logo-4.png"
     inkscape:export-xdpi="96.17202"
     inkscape:export-ydpi="96.17202" />
  <path
     d="m 354.9498,785.51882 h 82.01146 l -4.15721,24.09058 h -51.65677 l -3.54225,20.22373 h 41.62069 l -4.1572,24.06566 h -41.8174 l -7.37954,41.67854 h -30.35469 z"
     id="path70"
     inkscape:connector-curvature="0"
     style="fill:#000000;stroke-width:5.78515148"
     inkscape:export-filename="C:\Users\suitedoalex\sites\fifa23-logo-4.png"
     inkscape:export-xdpi="96.17202"
     inkscape:export-ydpi="96.17202" />
  <path
     d="m 462.54435,785.37101 h 34.06934 l 17.73554,110.20632 h -30.23205 l -2.45984,-19.28711 h -38.07845 l -9.24871,19.28711 h -29.29716 z m 16.1857,67.91223 -5.09151,-39.65837 h -0.61496 l -18.49802,39.65837 z"
     id="path72"
     inkscape:connector-curvature="0"
     style="fill:#000000;stroke-width:5.78515148"
     inkscape:export-filename="C:\Users\suitedoalex\sites\fifa23-logo-4.png"
     inkscape:export-xdpi="96.17202"
     inkscape:export-ydpi="96.17202" />
  <path
     d="m 534.00255,878.70436 36.89769,-35.17546 c 8.11773,-7.83367 21.07993,-19.70653 21.07993,-30.02725 0,-5.78861 -4.35043,-8.59673 -9.66641,-8.59673 -9.83938,0 -12.29923,8.30111 -13.4308,16.10933 h -27.69757 c 0.14752,-0.46801 0.93429,-5.64053 1.0824,-6.10854 4.20638,-22.51442 23.41772,-32.34281 45.58179,-32.34281 17.48851,0 33.57701,7.02028 33.57701,26.72659 0,21.87366 -22.33646,38.7715 -37.16959,52.04843 l -10.52782,9.38524 -0.14753,0.78794 h 38.54821 l -4.21159,24.06623 h -76.89218 z"
     id="path74"
     inkscape:connector-curvature="0"
     style="fill:#000000;stroke-width:5.78515148"
     inkscape:export-filename="C:\Users\suitedoalex\sites\fifa23-logo-4.png"
     inkscape:export-xdpi="96.17202"
     inkscape:export-ydpi="96.17202" />
  <path
     d="m 620.02659,872.29962 c 0.0117,-3.4763 0.42231,-6.93929 1.22645,-10.32129 h 27.47947 c -0.28925,1.5481 -0.49753,3.11068 -0.61901,4.68019 0,6.40474 7.03474,7.9812 12.17774,7.9812 1.8339,-0.048 3.63886,-0.45703 5.31077,-1.20332 1.67191,-0.74628 3.18183,-1.81596 4.443,-3.14713 1.26116,-1.33174 2.25042,-2.89894 2.90414,-4.61191 0.65952,-1.71357 0.97191,-3.53936 0.91984,-5.37383 0,-7.38995 -7.37606,-10.46882 -13.89594,-10.46882 h -5.28761 l 3.41902,-19.85405 h 6.24796 c 8.2612,0.46802 16.23314,-4.23705 16.23314,-14.77933 0,-5.93672 -3.91077,-9.06475 -9.52236,-9.06475 -8.90335,0 -12.79098,3.91654 -14.21412,12.04526 h -26.83733 l 0.61324,-3.59663 c 3.73721,-22.16927 23.27366,-32.36717 44.49938,-32.36717 16.38354,0 34.04562,7.38978 34.04562,26.57855 0,13.74494 -7.18516,25.47029 -20.6125,29.55923 l -0.17356,0.78851 c 4.5992,1.01009 8.70087,3.5897 11.6108,7.29682 2.90994,3.7077 4.43722,8.3121 4.3273,13.02469 0,25.96318 -27.47368,38.45159 -48.87874,37.98358 -16.70174,-0.19671 -35.4167,-5.12334 -35.4167,-25.1498 z"
     id="path76"
     inkscape:connector-curvature="0"
     style="fill:#000000;stroke-width:5.78515148"
     inkscape:export-filename="C:\Users\suitedoalex\sites\fifa23-logo-4.png"
     inkscape:export-xdpi="96.17202"
     inkscape:export-ydpi="96.17202" />
  <path
     d="m 350.00031,373.43584 c 54.27197,0 98.2684,-44.05749 98.2684,-98.40451 0,-54.34776 -43.99643,-98.40516 -98.2684,-98.40516 -54.27255,0 -98.26903,44.0574 -98.26903,98.40516 0,54.34702 43.99648,98.40451 98.26903,98.40451 z"
     id="path62-6"
     inkscape:connector-curvature="0"
     style="fill:#000000;fill-opacity:1;stroke-width:6.41975069"
     sodipodi:nodetypes="sssss"
     inkscape:export-filename="C:\Users\suitedoalex\sites\fifa23-logo-5.png"
     inkscape:export-xdpi="118.78579"
     inkscape:export-ydpi="118.78579" />
  <path
     d="m 414.63947,290.88556 h 2.48386 v 0.54632 h -0.9829 v 2.13197 h -0.62785 v -2.13197 h -0.9822 z m -117.21299,9.86773 h -5.67774 c -1.25572,0 -1.88349,-0.6837 -1.88349,-2.07736 v -2.24172 c -0.0291,-0.57467 0.15574,-1.13959 0.51865,-1.58573 0.16236,-0.2042 0.37048,-0.36783 0.60756,-0.47695 0.23709,-0.10949 0.49651,-0.16127 0.75728,-0.1516 h 4.44938 c 0.47341,-0.0246 0.94062,0.11668 1.31991,0.40192 0.37928,0.28497 0.64639,0.69391 0.75465,1.15628 l 0.62785,2.1595 h 4.06722 v -2.40554 c 0.0229,-0.73694 -0.10851,-1.47014 -0.38595,-2.15257 -0.2774,-0.68306 -0.69456,-1.29931 -1.22456,-1.8109 -0.51885,-0.50858 -1.13374,-0.90786 -1.80871,-1.17542 -0.67491,-0.26774 -1.39635,-0.39746 -2.12205,-0.38278 h -6.57856 c -0.7452,-0.0155 -1.48572,0.12252 -2.17578,0.40448 -0.69013,0.28186 -1.31528,0.70239 -1.8369,1.23586 -0.52571,0.51542 -0.94183,1.13303 -1.22327,1.81418 -0.28145,0.68124 -0.42242,1.41234 -0.41453,2.14928 v 3.82691 c -0.0267,0.7498 0.10116,1.49777 0.37568,2.19624 0.27451,0.69901 0.68974,1.3334 1.21989,1.86422 0.53014,0.53092 1.16371,0.94634 1.86135,1.22173 0.69762,0.27476 1.44438,0.40248 2.19356,0.37622 h 5.65046 c 1.25563,0 1.8835,0.73767 1.8835,2.15895 v 2.8978 c 0.0228,0.56046 -0.15106,1.11189 -0.49137,1.55802 -0.1666,0.20685 -0.3794,0.37112 -0.62125,0.48033 -0.24183,0.10948 -0.50587,0.1598 -0.77088,0.14822 h -4.50397 c -0.47639,0.0447 -0.95275,-0.0866 -1.33966,-0.36783 -0.38698,-0.28186 -0.65797,-0.69528 -0.76222,-1.16266 l -0.60051,-2.43297 h -4.09458 v 2.73344 c -0.0188,0.73767 0.11182,1.47215 0.38397,2.15767 0.27207,0.68562 0.68004,1.3097 1.19927,1.83351 0.52302,0.52007 1.1458,0.92828 1.83072,1.20049 0.68492,0.27284 1.41786,0.4032 2.15467,0.3846 h 6.66041 c 0.74258,0.0146 1.47904,-0.13546 2.16436,-0.42252 0.68524,-0.28625 1.30487,-0.70996 1.82095,-1.24471 0.52419,-0.52134 0.93716,-1.14397 1.21406,-1.83022 0.27681,-0.68562 0.41169,-1.42074 0.39647,-2.16096 v -4.61973 c -0.007,-1.48864 -0.59709,-2.91567 -1.64346,-3.97367 -1.04635,-1.05801 -2.4655,-1.66277 -3.95238,-1.68401 z m 27.13302,-9.10253 c 0.52257,0.51223 0.93665,1.12546 1.21783,1.80141 0.28181,0.67596 0.42434,1.40205 0.41985,2.13452 v 5.46707 c 0.0115,0.74159 -0.1271,1.47789 -0.40895,2.16414 -0.28183,0.68617 -0.69975,1.3077 -1.22873,1.8264 -0.53155,0.52773 -1.16198,0.94433 -1.85531,1.2262 -0.69398,0.28168 -1.43609,0.42234 -2.18464,0.41395 h -7.31531 v 9.89545 h -4.66793 v -26.56948 h 11.98324 c 0.74855,-0.0146 1.49066,0.13264 2.18464,0.41414 0.69333,0.28187 1.32376,0.69847 1.85531,1.2262 z m -3.05709,4.81098 c 0.0173,-0.56939 -0.17718,-1.12474 -0.54632,-1.55802 -0.16049,-0.19773 -0.36529,-0.35507 -0.59767,-0.45917 -0.23176,-0.1052 -0.48534,-0.15334 -0.73956,-0.14267 h -6.41462 v 8.20069 h 6.41462 c 0.25422,0.0146 0.5078,-0.0392 0.73956,-0.14267 0.23238,-0.1052 0.43718,-0.26199 0.59767,-0.45899 0.36849,-0.44495 0.56237,-1.00796 0.54632,-1.58564 z m 46.70489,9.12943 4.64034,10.93422 h -4.96773 l -4.23123,-10.36028 h -4.55863 v 10.41479 h -4.69481 v -26.56948 h 11.7373 c 0.74082,-0.0146 1.47588,0.12826 2.16152,0.40967 0.6849,0.28187 1.30569,0.70039 1.82388,1.23067 0.53735,0.50594 0.96677,1.11507 1.26203,1.79175 0.29599,0.67668 0.45133,1.40597 0.45781,2.14418 v 4.64726 c 0.0144,1.16713 -0.33258,2.31055 -0.98291,3.27986 -0.67785,0.91999 -1.59333,1.63778 -2.64757,2.07736 z m -1.14646,-9.12943 c 0.0345,-0.56228 -0.13978,-1.11845 -0.4911,-1.55802 -0.16124,-0.19773 -0.36602,-0.35507 -0.5983,-0.45917 -0.23186,-0.1052 -0.48534,-0.15334 -0.73968,-0.14267 h -6.14171 v 7.59921 h 6.14171 c 0.25362,0 0.50465,-0.0474 0.73636,-0.15087 0.23114,-0.10374 0.43663,-0.25807 0.60162,-0.45079 0.35118,-0.44039 0.5264,-0.99556 0.4911,-1.55802 z m 7.67034,-2.15968 h 6.74262 v 22.27784 h 4.72233 v -22.27784 h 6.79666 v -4.29164 h -18.26161 z m 33.87565,6.45123 h -5.65062 c -1.2557,0 -1.88355,-0.6837 -1.88355,-2.07736 v -2.24172 c -0.0288,-0.57467 0.15592,-1.13959 0.51877,-1.58573 0.16485,-0.20101 0.37351,-0.36209 0.61041,-0.47121 0.23632,-0.10948 0.4944,-0.16254 0.75437,-0.15734 h 4.3674 c 0.47496,-0.0301 0.94487,0.10948 1.32501,0.39481 0.38071,0.28561 0.64643,0.69847 0.74975,1.16339 l 0.62785,2.1595 h 4.06696 v -2.40554 c 0.0144,-0.73503 -0.12537,-1.46495 -0.40189,-2.1461 -0.27668,-0.68115 -0.68751,-1.29931 -1.20815,-1.81737 -0.52265,-0.51168 -1.14142,-0.91361 -1.82128,-1.18062 -0.67988,-0.26773 -1.40658,-0.39618 -2.13717,-0.37758 h -6.55139 c -1.47459,0.0219 -2.88303,0.61971 -3.923,1.66668 -1.0407,1.04707 -1.63137,2.45996 -1.64549,3.93712 v 3.82691 c -0.0144,0.74788 0.12969,1.49075 0.41674,2.18211 0.28632,0.69072 0.71127,1.31608 1.24863,1.83596 0.51862,0.52974 1.13883,0.94825 1.82446,1.23067 0.68491,0.28187 1.41997,0.42116 2.16094,0.40967 h 5.65062 c 1.28265,0 1.88354,0.73767 1.88354,2.15895 v 2.8978 c 0.0231,0.56046 -0.15159,1.11189 -0.49181,1.55802 -0.1663,0.20685 -0.37942,0.37112 -0.62137,0.48033 -0.24136,0.10948 -0.50594,0.1598 -0.77036,0.14822 h -4.50416 c -0.47625,0.0447 -0.95265,-0.0866 -1.3397,-0.36783 -0.38721,-0.28186 -0.65811,-0.69528 -0.76215,-1.16266 l -0.6009,-2.43297 h -4.09448 v 2.73344 c -0.0144,0.73958 0.1196,1.47461 0.39671,2.16095 0.27682,0.68626 0.68952,1.30834 1.21404,1.83023 1.04127,0.97642 2.42277,1.50615 3.84865,1.47588 h 6.63354 c 0.7473,0.0146 1.4887,-0.12972 2.1788,-0.4166 0.6901,-0.28688 1.3142,-0.7126 1.83354,-1.25063 0.52899,-0.51934 0.94761,-1.14069 1.22875,-1.82703 0.28185,-0.68626 0.42106,-1.42256 0.40896,-2.16415 v -4.51052 c -0.0345,-1.48928 -0.64068,-2.90865 -1.6929,-3.96219 -1.05223,-1.05354 -2.46974,-1.66075 -3.95715,-1.69549 z m 11.5736,-9.86773 -1.00986,1.5304 -0.9283,-1.5304 h -0.40895 v 2.56917 h 0.40895 v -1.58564 -0.30047 c 0,-0.10948 0,0.19126 0.16428,0.27348 l 0.84616,1.28454 0.81849,-1.25755 v -0.30047 1.88611 h 0.46415 v -2.56917 z m -73.15565,0.73748 c 0.53086,0.51378 0.95207,1.12994 1.23839,1.81109 0.28634,0.68114 0.4313,1.41362 0.42683,2.15256 v 15.28038 c 0,0.74843 -0.14121,1.49129 -0.42423,2.18393 -0.28388,0.69327 -0.70177,1.32319 -1.22875,1.85402 -0.5277,0.53082 -1.15496,0.95207 -1.84579,1.23968 -0.69067,0.28689 -1.43092,0.4352 -2.1788,0.4352 h -6.33309 c -0.7473,0.0146 -1.4887,-0.12972 -2.1788,-0.4166 -0.69024,-0.28688 -1.31478,-0.7126 -1.83353,-1.25063 -0.56114,-0.51359 -1.00785,-1.13886 -1.31349,-1.83533 -0.30558,-0.69655 -0.46286,-1.44963 -0.46095,-2.21027 v -15.28038 c 0.0494,-1.47196 0.67023,-2.86644 1.73077,-3.88707 1.05986,-1.02081 2.47609,-1.58774 3.94692,-1.5799 h 6.33309 c 0.75293,-0.0474 1.50859,0.0602 2.21799,0.31897 0.70941,0.25871 1.35772,0.66191 1.90344,1.18435 z m -3.02944,4.8387 c 0.0288,-0.57139 -0.16831,-1.13048 -0.54643,-1.55802 -0.1611,-0.19773 -0.36529,-0.35507 -0.59759,-0.45917 -0.23243,-0.1052 -0.48533,-0.15334 -0.73952,-0.14267 h -4.50416 c -0.26255,-0.0146 -0.5238,0.0374 -0.7646,0.1413 -0.24137,0.10511 -0.45579,0.26135 -0.62785,0.46036 -0.34022,0.44541 -0.51429,0.99693 -0.49109,1.55802 v 13.66693 c -0.0188,0.55225 0.15476,1.09329 0.49109,1.53122 0.16558,0.20994 0.37755,0.37868 0.61892,0.49245 0.24137,0.11377 0.50651,0.16946 0.77353,0.16363 h 4.50416 c 0.25866,0.0146 0.51603,-0.0501 0.74846,-0.16436 0.23301,-0.11386 0.43533,-0.28305 0.58865,-0.49172 0.37437,-0.41988 0.57007,-0.96876 0.54643,-1.53122 z m 19.79008,-74.29599 h -50.49965 l -7.72482,12.30043 h 50.47199 z m 19.10777,36.87451 h -7.53416 l -7.77957,12.32788 h 23.12083 l 7.75176,12.30099 h 14.7405 l -39.06169,-61.94068 -31.41888,49.66731 h -34.33944 l 7.88879,-12.32851 h 21.31864 l 7.78015,-12.30017 h -47.57881 l -7.83421,12.30017 h 11.41014 L 285.798,283.66913 h 64.20231 l 24.13055,-38.70602 z"
     id="path64-8"
     inkscape:connector-curvature="0"
     style="fill:#ffffff;stroke-width:6.41975069"
     sodipodi:nodetypes="ccccccccccssccccccccccccccccccccccccssccccccccccccccccccccccccccccccccccccccccccccccccccccccccccccccccccccccsccccccccccccccssccccccccccccccccccccccssccccccccccccccsccccscccccccccscccccccccccscccscccccccccccccccccccccccccccccccccccccccccccccccccccc"
     inkscape:export-filename="C:\Users\suitedoalex\sites\fifa23-logo-5.png"
     inkscape:export-xdpi="118.78579"
     inkscape:export-ydpi="118.78579" />
  <path
     d="m 88.808862,398.53757 h 91.456948 l -4.63585,26.8653 H 118.0236 l -3.95024,22.55288 h 46.41432 l -4.63604,26.8374 h -46.63363 l -8.22946,46.4788 H 67.137866 Z"
     id="path66-3"
     inkscape:connector-curvature="0"
     style="fill:#000000;fill-opacity:1;stroke-width:6.45144892"
     sodipodi:nodetypes="ccccccccccc"
     inkscape:export-filename="C:\Users\suitedoalex\sites\fifa23-logo-5.png"
     inkscape:export-xdpi="118.78579"
     inkscape:export-ydpi="118.78579" />
  <path
     d="m 192.11654,398.53757 h 33.87779 l -21.67098,122.73438 h -33.87781 z"
     id="path68-5"
     inkscape:connector-curvature="0"
     style="fill:#000000;fill-opacity:1;stroke-width:6.45144892"
     sodipodi:nodetypes="ccccc"
     inkscape:export-filename="C:\Users\suitedoalex\sites\fifa23-logo-5.png"
     inkscape:export-xdpi="118.78579"
     inkscape:export-ydpi="118.78579" />
  <path
     d="m 237.84505,398.53757 h 91.45705 l -4.63595,26.8653 H 267.0598 l -3.95025,22.55288 h 46.41423 l -4.63595,26.8374 H 258.2542 l -8.22945,46.4788 h -33.85069 z"
     id="path70-6"
     inkscape:connector-curvature="0"
     style="fill:#000000;fill-opacity:1;stroke-width:6.45144892"
     sodipodi:nodetypes="ccccccccccc"
     inkscape:export-filename="C:\Users\suitedoalex\sites\fifa23-logo-5.png"
     inkscape:export-xdpi="118.78579"
     inkscape:export-ydpi="118.78579" />
  <path
     d="m 357.83159,398.37276 h 37.9933 l 19.77824,122.89919 h -33.71401 l -2.74318,-21.50845 h -42.46398 l -10.31406,21.50845 h -32.67138 z m 18.04999,75.73395 -5.67792,-44.22595 h -0.68589 l -20.62845,44.22595 z"
     id="path72-9"
     inkscape:connector-curvature="0"
     style="fill:#000000;fill-opacity:1;stroke-width:6.45144892"
     sodipodi:nodetypes="cccccccccccccc"
     inkscape:export-filename="C:\Users\suitedoalex\sites\fifa23-logo-5.png"
     inkscape:export-xdpi="118.78579"
     inkscape:export-ydpi="118.78579" />
  <path
     d="m 437.51999,502.45583 41.14746,-39.22682 c 9.05266,-8.73598 23.50768,-21.97628 23.50768,-33.48572 0,-6.45524 -4.85141,-9.58678 -10.7797,-9.58678 -10.97264,0 -13.71582,9.25723 -14.97766,17.96459 h -30.88763 c 0.16452,-0.52189 1.04197,-6.29006 1.20705,-6.81195 4.69092,-25.10746 26.11483,-36.06793 50.83158,-36.06793 19.50276,0 37.44429,7.82884 37.44429,29.80476 0,24.39294 -24.90905,43.23696 -41.4505,58.04321 l -11.74042,10.46611 -0.16453,0.8787 h 42.98799 l -4.69668,26.83795 h -85.74816 z"
     id="path74-8"
     inkscape:connector-curvature="0"
     style="fill:#000000;fill-opacity:1;stroke-width:6.45144892"
     sodipodi:nodetypes="ccsscccssccccccc"
     inkscape:export-filename="C:\Users\suitedoalex\sites\fifa23-logo-5.png"
     inkscape:export-xdpi="118.78579"
     inkscape:export-ydpi="118.78579" />
  <path
     d="m 533.45184,495.31333 c 0.0147,-3.87677 0.47088,-7.73841 1.36774,-11.51017 h 30.64432 c -0.32256,1.72648 -0.55479,3.46901 -0.69037,5.21938 0,7.14223 7.84496,8.90025 13.58041,8.90025 2.04502,-0.0529 4.05788,-0.50949 5.92234,-1.34178 1.86445,-0.83221 3.54835,-2.02504 4.95475,-3.50968 1.4064,-1.485 2.50957,-3.23272 3.23861,-5.14299 0.73554,-1.9109 1.08393,-3.94696 1.02585,-5.99269 0,-8.24125 -8.2256,-11.67462 -15.49654,-11.67462 h -5.89659 l 3.81292,-22.14074 h 6.96751 c 9.21262,0.52189 18.10286,-4.72511 18.10286,-16.48151 0,-6.62051 -4.3612,-10.10876 -10.61911,-10.10876 -9.92883,0 -14.26419,4.36767 -15.85135,13.43247 h -29.9282 l 0.68378,-4.01078 c 4.16772,-24.72258 25.95433,-36.09501 49.62462,-36.09501 18.2705,0 37.96674,8.2408 37.96674,29.63968 0,15.32805 -8.01263,28.40381 -22.98651,32.96374 l -0.19349,0.87933 c 5.1289,1.12628 9.70295,4.00303 12.94808,8.13706 3.24494,4.13484 4.94818,9.26945 4.82566,14.52484 0,28.95351 -30.63794,42.88025 -54.50823,42.35835 -18.62549,-0.21942 -39.4958,-5.71347 -39.4958,-28.04637 z"
     id="path76-9"
     inkscape:connector-curvature="0"
     style="fill:#000000;fill-opacity:1;stroke-width:6.45144892"
     sodipodi:nodetypes="cccccccccscccsscccsscccccc"
     inkscape:export-filename="C:\Users\suitedoalex\sites\fifa23-logo-5.png"
     inkscape:export-xdpi="118.78579"
     inkscape:export-ydpi="118.78579" />
</svg>
